<svg xmlns="http://www.w3.org/2000/svg" width="24" height="25" viewBox="0 0 24 25" fill="none">
<path fill-rule="evenodd" clip-rule="evenodd" d="M7.00002 4.78418C7.00002 3.12733 8.34317 1.78418 10 1.78418H14C15.6569 1.78418 17 3.12733 17 4.78418V5.78418H19C20.6569 5.78418 22 7.12733 22 8.78418V14.0162C22.0004 14.0316 22.0004 14.047 22 14.0623V18.7842C22 20.441 20.6569 21.7842 19 21.7842H5.00002C3.34317 21.7842 2.00002 20.441 2.00002 18.7842V14.0622C1.99967 14.047 1.99967 14.0317 2.00002 14.0163V8.78418C2.00002 7.12733 3.34317 5.78418 5.00002 5.78418H7.00002V4.78418ZM5.00002 7.78418C4.44774 7.78418 4.00002 8.23189 4.00002 8.78418V13.355C6.49038 14.2789 9.18515 14.7842 12 14.7842C14.8149 14.7842 17.5097 14.2789 20 13.355V8.78418C20 8.23189 19.5523 7.78418 19 7.78418H5.00002ZM15 5.78418H9.00002V4.78418C9.00002 4.23189 9.44774 3.78418 10 3.78418H14C14.5523 3.78418 15 4.23189 15 4.78418V5.78418ZM20 15.4765C17.4872 16.3247 14.7964 16.7842 12 16.7842C9.20363 16.7842 6.51281 16.3247 4.00002 15.4765V18.7842C4.00002 19.3365 4.44774 19.7842 5.00002 19.7842H19C19.5523 19.7842 20 19.3365 20 18.7842V15.4765ZM11 12.7842C11 12.2319 11.4477 11.7842 12 11.7842H12.01C12.5623 11.7842 13.01 12.2319 13.01 12.7842C13.01 13.3365 12.5623 13.7842 12.01 13.7842H12C11.4477 13.7842 11 13.3365 11 12.7842Z" fill="#333333"/>
</svg>