<svg xmlns="http://www.w3.org/2000/svg" width="24" height="25" viewBox="0 0 24 25" fill="none">
<path fill-rule="evenodd" clip-rule="evenodd" d="M5 6.5C4.44772 6.5 4 6.94772 4 7.5V17.5C4 18.0523 4.44772 18.5 5 18.5H19C19.5523 18.5 20 18.0523 20 17.5V9.5C20 8.94771 19.5523 8.5 19 8.5H13C12.7348 8.5 12.4804 8.39464 12.2929 8.20711L10.5858 6.5H5ZM2 7.5C2 5.84315 3.34315 4.5 5 4.5H11C11.2652 4.5 11.5196 4.60536 11.7071 4.79289L13.4142 6.5H19C20.6569 6.5 22 7.84315 22 9.5V17.5C22 19.1569 20.6569 20.5 19 20.5H5C3.34315 20.5 2 19.1569 2 17.5V7.5ZM12 9.5C12.5523 9.5 13 9.94772 13 10.5V12.5H15C15.5523 12.5 16 12.9477 16 13.5C16 14.0523 15.5523 14.5 15 14.5H13V16.5C13 17.0523 12.5523 17.5 12 17.5C11.4477 17.5 11 17.0523 11 16.5V14.5H9C8.44772 14.5 8 14.0523 8 13.5C8 12.9477 8.44772 12.5 9 12.5H11V10.5C11 9.94772 11.4477 9.5 12 9.5Z" fill="black"/>
</svg>