<svg xmlns="http://www.w3.org/2000/svg" width="24" height="25" viewBox="0 0 24 25" fill="none">
<path fill-rule="evenodd" clip-rule="evenodd" d="M9.24405 5.27387C8.16423 5.67013 7.17209 6.29838 6.34315 7.12733C5.08052 8.38995 4.28353 10.0312 4.06272 11.7842H8.01766C8.09487 9.61071 8.42174 7.62892 8.92993 6.10422C9.02603 5.8159 9.1306 5.53788 9.24405 5.27387ZM12 2.78418C9.34784 2.78418 6.8043 3.83775 4.92893 5.71311C3.05357 7.58848 2 10.132 2 12.7842C2 15.4363 3.05357 17.9799 4.92893 19.8552C6.8043 21.7306 9.34784 22.7842 12 22.7842C14.6522 22.7842 17.1957 21.7306 19.0711 19.8552C20.9464 17.9799 22 15.4363 22 12.7842C22 10.132 20.9464 7.58848 19.0711 5.71311C17.1957 3.83775 14.6522 2.78418 12 2.78418ZM12 4.78418C12 4.78418 12.0059 4.78436 12.0153 4.78724C12.0264 4.79063 12.0485 4.79901 12.0814 4.81926C12.1506 4.86171 12.2546 4.94829 12.3824 5.11047C12.6426 5.44069 12.9207 5.98049 13.1727 6.73664C13.6028 8.02699 13.9045 9.78715 13.981 11.7842H10.019C10.0955 9.78715 10.3972 8.02699 10.8273 6.73664C11.0793 5.98049 11.3574 5.44069 11.6176 5.11047C11.7454 4.94829 11.8494 4.86171 11.9186 4.81926C11.9515 4.79901 11.9736 4.79063 11.9847 4.78724C11.9948 4.78416 12 4.78418 12 4.78418ZM8.01766 13.7842H4.06272C4.28353 15.5372 5.08052 17.1784 6.34315 18.441C7.17209 19.27 8.16423 19.8982 9.24404 20.2945C9.1306 20.0305 9.02603 19.7525 8.92993 19.4641C8.42174 17.9394 8.09487 15.9577 8.01766 13.7842ZM11.9998 20.7842C11.9998 20.7842 11.9943 20.784 11.9847 20.7811C11.9736 20.7777 11.9515 20.7693 11.9186 20.7491C11.8494 20.7066 11.7454 20.6201 11.6176 20.4579C11.3574 20.1277 11.0793 19.5879 10.8273 18.8317C10.3972 17.5414 10.0955 15.7812 10.019 13.7842H13.981C13.9045 15.7812 13.6028 17.5414 13.1727 18.8317C12.9207 19.5879 12.6426 20.1277 12.3824 20.4579C12.2546 20.6201 12.1506 20.7066 12.0814 20.7491C12.0485 20.7693 12.0264 20.7777 12.0153 20.7811C12.0052 20.7842 11.9998 20.7842 11.9998 20.7842C14.756 20.2945 11.9998 20.7842 14.756 20.2945C15.8358 19.8982 16.8279 19.27 17.6569 18.441C18.9195 17.1784 19.7165 15.5372 19.9373 13.7842H15.9823C15.9051 15.9577 15.5783 17.9394 15.0701 19.4641C14.974 19.7525 14.8694 20.0305 14.756 20.2945M15.9823 11.7842C15.9051 9.61071 15.5783 7.62892 15.0701 6.10422C14.974 5.8159 14.8694 5.53788 14.756 5.27387C15.8358 5.67013 16.8279 6.29838 17.6569 7.12733C18.9195 8.38995 19.7165 10.0312 19.9373 11.7842H15.9823Z" fill="#333333"/>
</svg>