<svg viewBox="0 0 96 96" fill="none" xmlns="http://www.w3.org/2000/svg">
<path d="M95.6919 25.0176C95.3342 24.8083 54.9966 7.06916 54.9966 7.06916C54.5772 6.90044 53.9525 7.2562 53.993 7.62065C53.993 7.62065 57.4224 29.1547 56.5836 30.8506C55.7448 32.5475 43.0635 40.2066 42.7617 41.0917C42.4599 41.9767 43.775 54.3167 44.7951 55.923C45.8161 57.5293 64.7855 65.3137 64.7855 65.3137C64.7855 65.3137 62.5535 51.2759 63.079 50.117C63.6035 48.9581 95.5222 26.2815 95.5222 26.2815C96.0082 25.946 96.2193 25.2605 95.6919 25.0166V25.0176Z" fill="url(#paint0_linear_836_874)"/>
<path d="M0.00208914 0.604637C0.00208914 1.01922 5.01079 44.7998 5.01079 44.7998C5.07635 45.2471 5.69822 45.6077 5.99324 45.3889C5.99324 45.3889 22.8637 31.5737 24.7515 31.4426C26.6393 31.3115 39.6465 38.4046 40.5634 38.2195C41.4803 38.0344 51.4755 30.679 52.349 28.9879C53.2216 27.2968 50.3851 6.98916 50.3851 6.98916C50.3851 6.98916 39.3852 15.9913 38.1193 16.1224C36.8534 16.2536 1.18123 0.11389 1.18123 0.11389C0.646132 -0.136786 -0.0519017 0.0261543 0.00305422 0.604637H0.00208914Z" fill="url(#paint1_linear_836_874)"/>
<path d="M26.9884 95.5868C27.3471 95.3785 62.6982 69.072 62.6982 69.072C63.052 68.7905 63.0511 68.0722 62.7146 67.9266C62.7146 67.9266 42.298 60.2694 41.2374 58.7027C40.1769 57.136 39.7825 42.3249 39.1616 41.6259C38.5407 40.9259 27.1629 35.9722 25.2617 36.0666C23.3604 36.1602 7.2207 48.8077 7.2207 48.8077C7.2207 48.8077 20.5277 53.8029 21.2769 54.8317C22.025 55.8604 25.9722 94.8145 25.9722 94.8145C26.0233 95.4026 26.516 95.9252 26.9884 95.5877V95.5868Z" fill="url(#paint2_linear_836_874)"/>
<defs>
<linearGradient id="paint0_linear_836_874" x1="42.7283" y1="22.4036" x2="80.4143" y2="96.0083" gradientUnits="userSpaceOnUse">
<stop offset="0.215613" stop-color="#32BEFC"/>
<stop offset="0.649776" stop-color="#0D91E3"/>
</linearGradient>
<linearGradient id="paint1_linear_836_874" x1="42.988" y1="28.6414" x2="-20.6363" y2="-2.9629" gradientUnits="userSpaceOnUse">
<stop offset="0.285695" stop-color="#32BEFC"/>
<stop offset="0.961076" stop-color="#0D91E3"/>
</linearGradient>
<linearGradient id="paint2_linear_836_874" x1="39.2455" y1="36.0746" x2="37.3742" y2="115.813" gradientUnits="userSpaceOnUse">
<stop offset="0.17937" stop-color="#32BEFC"/>
<stop offset="0.796827" stop-color="#006FB4"/>
</linearGradient>
</defs>
</svg>
