<svg width="100" height="101" viewBox="0 0 100 101" fill="none" xmlns="http://www.w3.org/2000/svg">
<path d="M99.679 26.8401C99.3064 26.6221 57.288 8.14383 57.288 8.14383C56.8512 7.96808 56.2004 8.33867 56.2425 8.7183C56.2425 8.7183 59.8149 31.1496 58.9411 32.9162C58.0674 34.6837 44.8577 42.662 44.5433 43.5839C44.229 44.5059 45.5989 57.3601 46.6614 59.0333C47.725 60.7064 67.4848 68.8152 67.4848 68.8152C67.4848 68.8152 65.1598 54.1925 65.7072 52.9853C66.2535 51.7781 99.5022 28.1567 99.5022 28.1567C100.008 27.8072 100.228 27.0932 99.679 26.8391V26.8401Z" fill="url(#paint0_linear_656_1910)"/>
<path d="M0.00217619 1.40986C0.00217619 1.84171 5.21957 47.4465 5.21957 47.4465C5.28786 47.9125 5.93564 48.2881 6.24296 48.0601C6.24296 48.0601 23.8164 33.6693 25.7828 33.5327C27.7493 33.3962 41.2984 40.7849 42.2535 40.592C43.2086 40.3992 53.6203 32.7373 54.5302 30.9758C55.4391 29.2142 52.4844 8.0604 52.4844 8.0604C52.4844 8.0604 41.0263 17.4377 39.7076 17.5742C38.3889 17.7108 1.23045 0.898664 1.23045 0.898664C0.673054 0.637544 -0.0540642 0.807273 0.00318148 1.40986H0.00217619Z" fill="url(#paint1_linear_656_1910)"/>
<path d="M28.1129 100.349C28.4865 100.132 65.3105 72.7298 65.3105 72.7298C65.6791 72.4366 65.6781 71.6884 65.3276 71.5367C65.3276 71.5367 44.0603 63.5605 42.9556 61.9285C41.8508 60.2965 41.4401 44.8683 40.7933 44.1401C40.1465 43.411 28.2946 38.2509 26.3141 38.3493C24.3336 38.4467 7.52148 51.6213 7.52148 51.6213C7.52148 51.6213 21.383 56.8246 22.1633 57.8962C22.9427 58.9678 27.0543 99.5449 27.0543 99.5449C27.1076 100.158 27.6208 100.702 28.1129 100.35V100.349Z" fill="url(#paint2_linear_656_1910)"/>
<defs>
<linearGradient id="paint0_linear_656_1910" x1="44.5085" y1="24.1172" x2="83.7648" y2="100.789" gradientUnits="userSpaceOnUse">
<stop offset="0.215613" stop-color="#32BEFC"/>
<stop offset="0.649776" stop-color="#0D91E3"/>
</linearGradient>
<linearGradient id="paint1_linear_656_1910" x1="44.7792" y1="30.6148" x2="-21.4962" y2="-2.30633" gradientUnits="userSpaceOnUse">
<stop offset="0.285695" stop-color="#32BEFC"/>
<stop offset="0.961076" stop-color="#0D91E3"/>
</linearGradient>
<linearGradient id="paint2_linear_656_1910" x1="40.8807" y1="38.3576" x2="38.9314" y2="121.418" gradientUnits="userSpaceOnUse">
<stop offset="0.17937" stop-color="#32BEFC"/>
<stop offset="0.796827" stop-color="#006FB4"/>
</linearGradient>
</defs>
</svg>